<svg xmlns="http://www.w3.org/2000/svg" fill="none" viewBox="-0.5 -0.5 24 24" id="Keyboard-Backspace--Streamline-Rounded-Material-Symbols.svg" height="24" width="24"><desc>Keyboard Backspace Streamline Icon: https://streamlinehq.com</desc><path fill="#FFFFFF" d="m5.653975 12.194839583333334 3.4739583333333335 3.4739583333333335c0.14375 0.14375 0.21164791666666666 0.31145833333333334 0.20364583333333333 0.503125 -0.008002083333333333 0.19166666666666668 -0.08385416666666666 0.359375 -0.22760416666666666 0.503125 -0.14375 0.14375 -0.3154354166666667 0.215625 -0.5151041666666667 0.215625 -0.19966875 0 -0.3713541666666667 -0.071875 -0.5151041666666667 -0.215625l-4.695828541666667 -4.695833333333334c-0.07986270833333334 -0.07987708333333333 -0.13576229166666667 -0.15970625 -0.16770833333333332 -0.23958333333333334 -0.03194604166666667 -0.07987708333333333 -0.04791666666666667 -0.16770833333333332 -0.04791666666666667 -0.2635416666666667 0 -0.09583333333333334 0.015970625 -0.18366458333333333 0.04791666666666667 -0.2635416666666667 0.03194604166666667 -0.07987708333333333 0.087845625 -0.15970625 0.16770833333333332 -0.23958333333333334l4.7197868750000005 -4.719791666666667c0.14375 -0.14375 0.3154354166666667 -0.215625 0.5151041666666667 -0.215625 0.19966875 0 0.3713541666666667 0.071875 0.5151041666666667 0.215625 0.14375 0.14375 0.215625 0.3154354166666667 0.215625 0.5151041666666667 0 0.19966875 -0.071875 0.3713541666666667 -0.215625 0.5151041666666667l-3.4739583333333335 3.4739583333333335h13.752083333333333c0.20762291666666668 0 0.37935625 0.06789791666666667 0.5151041666666667 0.20364583333333333s0.20364583333333333 0.30748125000000004 0.20364583333333333 0.5151041666666667c0 0.20762291666666668 -0.06789791666666667 0.37935625 -0.20364583333333333 0.5151041666666667s-0.30748125000000004 0.20364583333333333 -0.5151041666666667 0.20364583333333333h-13.752083333333333Z" stroke-width="1"></path></svg>