<svg xmlns="http://www.w3.org/2000/svg" fill="none" viewBox="-0.5 -0.5 24 24" id="Check--Streamline-Rounded-Material-Symbols.svg" height="24" width="24"><desc>Check Streamline Icon: https://streamlinehq.com</desc><path fill="#06D6A0" d="m9.05625 15.0457375 8.696875 -8.696875c0.1480625 -0.14375 0.32089791666666667 -0.215625 0.5184583333333334 -0.215625 0.19741666666666666 0 0.36800000000000005 0.07225833333333333 0.51175 0.21682291666666667 0.14375 0.14470833333333333 0.215625 0.31639375000000003 0.215625 0.5151041666666667 0 0.19885416666666667 -0.071875 0.37015625 -0.215625 0.51390625l-9.223958333333334 9.223958333333334c-0.14375 0.14375 -0.31145833333333334 0.215625 -0.503125 0.215625s-0.359375 -0.071875 -0.503125 -0.215625l-4.360421458333333 -4.360416666666667c-0.14375 -0.14485208333333335 -0.21163354166666667 -0.316825 -0.20364583333333333 -0.5158229166666667 0.007982916666666668 -0.19918958333333334 0.08425187499999999 -0.37063541666666666 0.22880208333333332 -0.5143854166666666 0.14470833333333333 -0.14375 0.316408125 -0.215625 0.5151041666666667 -0.215625 0.19885895833333334 0 0.3701610416666667 0.071875 0.5139110416666667 0.215625l3.809375 3.8333333333333335Z" stroke-width="1"></path></svg>