<svg xmlns="http://www.w3.org/2000/svg" fill="none" viewBox="-0.5 -0.5 24 24" id="List-Alt-Add--Streamline-Rounded-Material-Symbols.svg" height="24" width="24"><desc>List Alt Add Streamline Icon: https://streamlinehq.com</desc><path fill="#000000" d="M4.3125 20.125c-0.38333333333333336 0 -0.71875 -0.14375 -1.00625 -0.43125 -0.2875 -0.2875 -0.43125 -0.6229166666666667 -0.43125 -1.00625V4.3125c0 -0.38333333333333336 0.14375 -0.71875 0.43125 -1.00625C3.59375 3.01875 3.9291666666666667 2.875 4.3125 2.875h14.375c0.38333333333333336 0 0.71875 0.14375 1.00625 0.43125 0.2875 0.2875 0.43125 0.6229166666666667 0.43125 1.00625v8.361458333333333c0 0.20891666666666667 -0.06933541666666666 0.38093750000000004 -0.20795833333333333 0.5160625 -0.13847916666666665 0.135125 -0.31016458333333335 0.2026875 -0.5151041666666667 0.2026875 -0.20474791666666667 0 -0.37504375 -0.06890416666666667 -0.5107916666666668 -0.20676041666666667 -0.13574791666666666 -0.13766458333333334 -0.20364583333333333 -0.30834374999999997 -0.20364583333333333 -0.5119895833333333V4.3125H4.3125v14.375h6.9c0.20364583333333333 0 0.37437291666666667 0.06933541666666666 0.5122291666666666 0.20795833333333333 0.13766458333333334 0.13847916666666665 0.20652083333333335 0.31016458333333335 0.20652083333333335 0.5151041666666667 0 0.20474791666666667 -0.06885625 0.37504375 -0.20652083333333335 0.5107916666666668 -0.13785625 0.13574791666666666 -0.3085833333333334 0.20364583333333333 -0.5122291666666666 0.20364583333333333H4.3125Zm2.875 -3.9770833333333337c0.19166666666666668 0 0.359375 -0.071875 0.503125 -0.215625 0.14375 -0.14375 0.215625 -0.31145833333333334 0.215625 -0.503125s-0.071875 -0.359375 -0.215625 -0.503125c-0.14375 -0.14375 -0.31145833333333334 -0.215625 -0.503125 -0.215625s-0.359375 0.071875 -0.503125 0.215625c-0.14375 0.14375 -0.215625 0.31145833333333334 -0.215625 0.503125s0.071875 0.359375 0.215625 0.503125c0.14375 0.14375 0.31145833333333334 0.215625 0.503125 0.215625Zm0 -3.9291666666666667c0.19166666666666668 0 0.359375 -0.071875 0.503125 -0.215625 0.14375 -0.14375 0.215625 -0.31145833333333334 0.215625 -0.503125s-0.071875 -0.359375 -0.215625 -0.503125c-0.14375 -0.14375 -0.31145833333333334 -0.215625 -0.503125 -0.215625s-0.359375 0.071875 -0.503125 0.215625c-0.14375 0.14375 -0.215625 0.31145833333333334 -0.215625 0.503125s0.071875 0.359375 0.215625 0.503125c0.14375 0.14375 0.31145833333333334 0.215625 0.503125 0.215625Zm0 -3.9291666666666667c0.19166666666666668 0 0.359375 -0.071875 0.503125 -0.215625 0.14375 -0.14375 0.215625 -0.31145833333333334 0.215625 -0.503125s-0.071875 -0.359375 -0.215625 -0.503125c-0.14375 -0.14375 -0.31145833333333334 -0.215625 -0.503125 -0.215625s-0.359375 0.071875 -0.503125 0.215625c-0.14375 0.14375 -0.215625 0.31145833333333334 -0.215625 0.503125s0.071875 0.359375 0.215625 0.503125c0.14375 0.14375 0.31145833333333334 0.215625 0.503125 0.215625Zm8.289583333333335 3.9291666666666667c0.20364583333333333 0 0.37437291666666667 -0.06933541666666666 0.5122291666666666 -0.20795833333333333 0.13766458333333334 -0.13847916666666665 0.20652083333333335 -0.31016458333333335 0.20652083333333335 -0.5151041666666667 0 -0.20474791666666667 -0.06885625 -0.37504375 -0.20652083333333335 -0.5107916666666668 -0.13785625 -0.13574791666666666 -0.3085833333333334 -0.20364583333333333 -0.5122291666666666 -0.20364583333333333h-4.408333333333333c-0.20364583333333333 0 -0.374325 0.06933541666666666 -0.5119895833333333 0.20795833333333333 -0.13785625 0.13847916666666665 -0.20676041666666667 0.31016458333333335 -0.20676041666666667 0.5151041666666667 0 0.20474791666666667 0.06890416666666667 0.37504375 0.20676041666666667 0.5107916666666668 0.13766458333333334 0.13574791666666666 0.30834374999999997 0.20364583333333333 0.5119895833333333 0.20364583333333333h4.408333333333333Zm0 -3.9291666666666667c0.20364583333333333 0 0.37437291666666667 -0.06933541666666666 0.5122291666666666 -0.20795833333333333 0.13766458333333334 -0.13847916666666665 0.20652083333333335 -0.31016458333333335 0.20652083333333335 -0.5151041666666667 0 -0.20474791666666667 -0.06885625 -0.37504375 -0.20652083333333335 -0.5107916666666668 -0.13785625 -0.13574791666666666 -0.3085833333333334 -0.20364583333333333 -0.5122291666666666 -0.20364583333333333h-4.408333333333333c-0.20364583333333333 0 -0.374325 0.06933541666666666 -0.5119895833333333 0.20795833333333333 -0.13785625 0.13847916666666665 -0.20676041666666667 0.31016458333333335 -0.20676041666666667 0.5151041666666667 0 0.20474791666666667 0.06890416666666667 0.37504375 0.20676041666666667 0.5107916666666668 0.13766458333333334 0.13574791666666666 0.30834374999999997 0.20364583333333333 0.5119895833333333 0.20364583333333333h4.408333333333333ZM10.350000000000001 15.433479166666668c0 0.20474791666666667 0.06890416666666667 0.37504375 0.20676041666666667 0.5107916666666668 0.13766458333333334 0.13574791666666666 0.30834374999999997 0.20364583333333333 0.5119895833333333 0.20364583333333333h1.1979166666666667c0.20364583333333333 0 0.37437291666666667 -0.06933541666666666 0.5122291666666666 -0.20795833333333333 0.13766458333333334 -0.13847916666666665 0.20652083333333335 -0.31016458333333335 0.20652083333333335 -0.5151041666666667 0 -0.20474791666666667 -0.06885625 -0.37504375 -0.20652083333333335 -0.5107916666666668 -0.13785625 -0.13574791666666666 -0.3085833333333334 -0.20364583333333333 -0.5122291666666666 -0.20364583333333333h-1.1979166666666667c-0.20364583333333333 0 -0.374325 0.06933541666666666 -0.5119895833333333 0.20795833333333333 -0.13785625 0.13847916666666665 -0.20676041666666667 0.31016458333333335 -0.20676041666666667 0.5151041666666667ZM16.770833333333336 19.166666666666668h-2.15625c-0.20364583333333333 0 -0.374325 -0.06933541666666666 -0.5119895833333333 -0.20795833333333333 -0.13785625 -0.13847916666666665 -0.20676041666666667 -0.31016458333333335 -0.20676041666666667 -0.5151041666666667 0 -0.20474791666666667 0.06890416666666667 -0.37504375 0.20676041666666667 -0.5107916666666668 0.13766458333333334 -0.13574791666666666 0.30834374999999997 -0.20364583333333333 0.5119895833333333 -0.20364583333333333H16.770833333333336v-2.15625c0 -0.20364583333333333 0.06933541666666666 -0.37437291666666667 0.20795833333333333 -0.5122291666666666 0.13847916666666665 -0.13766458333333334 0.31016458333333335 -0.20652083333333335 0.5151041666666667 -0.20652083333333335 0.20474791666666667 0 0.37504375 0.06885625 0.5107916666666668 0.20652083333333335 0.13574791666666666 0.13785625 0.20364583333333333 0.3085833333333334 0.20364583333333333 0.5122291666666666V17.729166666666668h2.15625c0.20364583333333333 0 0.37437291666666667 0.06933541666666666 0.5122291666666666 0.20795833333333333 0.13766458333333334 0.13847916666666665 0.20652083333333335 0.31016458333333335 0.20652083333333335 0.5151041666666667 0 0.20474791666666667 -0.06885625 0.37504375 -0.20652083333333335 0.5107916666666668 -0.13785625 0.13574791666666666 -0.3085833333333334 0.20364583333333333 -0.5122291666666666 0.20364583333333333H18.208333333333336v2.15625c0 0.20364583333333333 -0.06933541666666666 0.374325 -0.20795833333333333 0.5119895833333333 -0.13847916666666665 0.13785625 -0.31016458333333335 0.20676041666666667 -0.5151041666666667 0.20676041666666667 -0.20474791666666667 0 -0.37504375 -0.06890416666666667 -0.5107916666666668 -0.20676041666666667C16.838731250000002 21.697241666666667 16.770833333333336 21.5265625 16.770833333333336 21.322916666666668V19.166666666666668Z" stroke-width="1"></path></svg>