<svg xmlns="http://www.w3.org/2000/svg" fill="none" viewBox="-0.5 -0.5 24 24" id="Add--Streamline-Rounded-Material-Symbols.svg" height="24" width="24"><desc>Add Streamline Icon: https://streamlinehq.com</desc><path fill="#000000" d="M10.78125 12.21875h-5.270833333333334c-0.20364583333333333 0 -0.374325 -0.06933541666666666 -0.5119895833333333 -0.20795833333333333 -0.13785625 -0.13847916666666665 -0.20676041666666667 -0.31016458333333335 -0.20676041666666667 -0.5151041666666667 0 -0.20474791666666667 0.06890416666666667 -0.37504375 0.20676041666666667 -0.5107916666666668 0.13766458333333334 -0.13574791666666666 0.30834374999999997 -0.20364583333333333 0.5119895833333333 -0.20364583333333333h5.270833333333334v-5.270833333333334c0 -0.20364583333333333 0.06933541666666666 -0.37437291666666667 0.20795833333333333 -0.5122291666666666 0.13847916666666665 -0.13766458333333334 0.31016458333333335 -0.20652083333333335 0.5151041666666667 -0.20652083333333335 0.20474791666666667 0 0.37504375 0.06885625 0.5107916666666668 0.20652083333333335 0.13574791666666666 0.13785625 0.20364583333333333 0.3085833333333334 0.20364583333333333 0.5122291666666666v5.270833333333334h5.270833333333334c0.20364583333333333 0 0.37437291666666667 0.06933541666666666 0.5122291666666666 0.20795833333333333 0.13766458333333334 0.13847916666666665 0.20652083333333335 0.31016458333333335 0.20652083333333335 0.5151041666666667 0 0.20474791666666667 -0.06885625 0.37504375 -0.20652083333333335 0.5107916666666668 -0.13785625 0.13574791666666666 -0.3085833333333334 0.20364583333333333 -0.5122291666666666 0.20364583333333333h-5.270833333333334v5.270833333333334c0 0.20364583333333333 -0.06933541666666666 0.374325 -0.20795833333333333 0.5119895833333333 -0.13847916666666665 0.13785625 -0.31016458333333335 0.20676041666666667 -0.5151041666666667 0.20676041666666667 -0.20474791666666667 0 -0.37504375 -0.06890416666666667 -0.5107916666666668 -0.20676041666666667 -0.13574791666666666 -0.13766458333333334 -0.20364583333333333 -0.30834374999999997 -0.20364583333333333 -0.5119895833333333v-5.270833333333334Z" stroke-width="1"></path></svg>